<svg xmlns="http://www.w3.org/2000/svg" viewBox="0 7.300000190734863 136.5 44.20000076293945" data-asc="0.825" width="136.5" height="44.20000076293945"><defs/><g fill="#003e52"><g transform="translate(0, 0)"><path d="M27.10 46.70Q24.30 46.70 21.35 45.88Q18.40 45.05 15.78 43.45Q13.15 41.85 11.25 39.65Q7.25 43.65 3.65 43.65Q1.80 43.65 0.90 42.58Q0 41.50 0 39.80Q0 36.65 2.40 32.40Q4.65 28.40 6 28.20Q7 28.20 8.05 30.25L11.20 36.35Q13.85 32.80 16.75 28.70Q12.65 26.85 12.65 23.35Q12.65 21.85 13.38 20.57Q14.10 19.30 15.25 18.50Q16.40 17.70 17.60 17.70Q19.25 17.70 20.00 19.25Q20.10 19.40 20.03 19.55Q19.95 19.70 19.85 19.65Q19.50 19.25 18.85 18.95Q18.20 18.65 17.65 18.65Q16.60 18.65 15.72 19.47Q14.85 20.30 14.38 21.40Q13.90 22.50 14 23.35Q14 25.90 17.60 27.80Q18.45 26.55 19.45 25.07Q20.45 23.60 21.60 21.90Q31.55 7.30 38.15 7.30Q42.80 7.30 42.80 11.65Q42.80 15.60 38.95 20.95Q37.05 23.60 34.15 25.70Q31.25 27.80 28.03 29.02Q24.80 30.25 21.80 30.25Q21.10 30.25 20.43 30.17Q19.75 30.10 19.20 29.90Q17.90 31.60 16.20 33.70Q14.50 35.80 12.45 38.35Q13.35 39.60 15.03 40.85Q16.70 42.10 18.80 43.08Q20.90 44.05 22.95 44.65Q25.00 45.25 26.65 45.25Q28.55 45.25 30.15 44.83Q31.75 44.40 32.75 43.48Q33.75 42.55 33.75 41.05Q33.75 40.85 33.75 40.65Q33.75 40.45 33.70 40.25Q33.70 40.15 33.68 40.10Q33.65 40.05 33.65 40Q33.65 39.50 33.95 39.50Q34.45 39.50 34.75 40.27Q35.05 41.05 35.05 41.50Q35.05 43.05 33.85 44.23Q32.65 45.40 30.83 46.05Q29.00 46.70 27.10 46.70M21.45 28.95Q24.00 28.95 26.90 27.77Q29.80 26.60 32.38 24.68Q34.95 22.75 36.55 20.50Q41.10 14.15 41.10 10.85Q41.10 9.45 40.30 8.80Q39.50 8.15 38.35 8.15Q35.85 8.15 32.15 12.35Q31.00 13.70 29.13 16.22Q27.25 18.75 24.70 22.45Q23.70 23.90 22.50 25.50Q21.30 27.10 20.00 28.80Q20.70 28.95 21.45 28.95M3.75 42.30Q4.70 42.30 5.88 41.63Q7.05 40.95 8.15 39.95Q9.25 38.95 9.95 38Q9.25 37 8.45 35.60Q7.65 34.20 6.70 32.35Q5.55 29.95 4.95 30.20Q4.05 30.35 3.00 33.40Q1.95 36.45 1.95 39.10Q1.95 42.30 3.75 42.30ZM35.10 41.80Q32.85 41.80 32.85 38.95Q32.85 37.85 33.52 36.33Q34.20 34.80 35.45 33.10Q35.45 33.10 34.55 33.95Q33.65 34.80 32.50 36.10Q32.30 36.30 32 36.30Q31.80 36.30 31.80 36.05Q31.80 35.80 32.25 35.20L39.15 27.10Q40.45 25.60 42 25.60Q43.15 25.60 43.15 26.50Q43.15 26.85 42.85 27.15Q41.90 28.05 40.52 29.70Q39.15 31.35 37.85 33.25Q36.55 35.15 35.67 36.88Q34.80 38.60 34.80 39.65Q34.80 40.55 35.40 40.55Q35.75 40.55 36.50 40.27Q37.25 40 38.50 39.13Q39.75 38.25 41.50 36.40Q41.80 36.10 43.10 34.60Q44.40 33.10 46.60 30.30Q50.50 25.45 51.70 25.45Q53.35 25.45 53.50 26.80Q53.60 27.25 51.40 29.75Q48.55 33.20 47.50 34.70Q45.55 37.55 45.55 39.15Q45.55 40.25 46.30 40.25Q47.05 40.25 48.23 39.52Q49.40 38.80 50.70 37.67Q52 36.55 53.23 35.33Q54.45 34.10 55.35 33.05Q55.65 32.70 55.95 32.70Q56.25 32.70 56.25 33Q56.25 33.10 56.20 33.30Q56.15 33.50 55.90 33.75Q55.10 34.65 53.85 35.98Q52.60 37.30 51.15 38.60Q49.70 39.90 48.35 40.75Q47 41.60 46.05 41.60Q44.90 41.60 44.05 40.98Q43.20 40.35 43.20 39.25Q43.20 38.15 43.55 37.02Q43.90 35.90 44.10 35.10Q41.75 37.85 39.98 39.30Q38.20 40.75 37 41.27Q35.80 41.80 35.10 41.80ZM53.10 46.35Q52.50 46.35 52.50 45.80Q52.50 45.65 52.60 45.55Q57.25 38.20 62.65 32.65Q62.70 31.45 62.75 29.52Q62.80 27.60 62.90 24.95Q62.35 25.05 61.05 26.63Q59.75 28.20 58 30.75Q56.30 33.25 54.83 34.90Q53.35 36.55 53.15 36.70Q52.80 37 52.50 37Q52.25 37 52.25 36.75Q52.25 36.55 52.42 36.33Q52.60 36.10 53.25 35.40Q54.15 34.40 54.80 33.63Q55.45 32.85 56.08 31.95Q56.70 31.05 57.55 29.75Q58.10 28.95 58.92 27.73Q59.75 26.50 60.63 25.35Q61.50 24.20 62.15 23.65Q62.65 23.20 63.23 23Q63.80 22.80 64.30 22.80Q64.90 22.80 65.42 23.05Q65.95 23.30 65.80 24.15Q65.80 24.20 65.58 25.73Q65.35 27.25 65.15 30.20Q66.10 29.30 68.92 26.82Q71.75 24.35 76.20 20.55Q76.30 20.45 76.45 20.45Q76.80 20.45 77.20 20.88Q77.60 21.30 77.60 21.75Q77.60 22.15 77.20 22.55Q75.65 23.80 71.20 27.05Q69.20 28.45 67.63 29.75Q66.05 31.05 65.05 32Q65 32.50 65 33Q65 33.50 65 33.95Q65 37.05 65.63 38.58Q66.25 40.10 67.65 40.10Q69.20 40.10 71.58 38.13Q73.95 36.15 76.45 33.25Q76.95 32.75 77.20 32.75Q77.45 32.75 77.45 33.05Q77.45 33.15 77.38 33.35Q77.30 33.55 77.05 33.85Q75.45 35.70 73.58 37.60Q71.70 39.50 69.80 40.77Q67.90 42.05 66.15 42.05Q64.65 42.05 63.90 40.92Q63.15 39.80 62.92 38.05Q62.70 36.30 62.65 34.40Q56.55 40.90 53.50 46.15Q53.35 46.35 53.10 46.35ZM77.70 41.80Q75.45 41.80 75.45 38.95Q75.45 37.85 76.13 36.33Q76.80 34.80 78.05 33.10Q78.05 33.10 77.15 33.95Q76.25 34.80 75.10 36.10Q74.90 36.30 74.60 36.30Q74.40 36.30 74.40 36.05Q74.40 35.80 74.85 35.20L81.75 27.10Q83.05 25.60 84.60 25.60Q85.75 25.60 85.75 26.50Q85.75 26.85 85.45 27.15Q84.50 28.05 83.13 29.70Q81.75 31.35 80.45 33.25Q79.15 35.15 78.27 36.88Q77.40 38.60 77.40 39.65Q77.40 40.55 78 40.55Q78.35 40.55 79.10 40.27Q79.85 40 81.10 39.13Q82.35 38.25 84.10 36.40Q84.40 36.10 85.70 34.60Q87 33.10 89.20 30.30Q93.10 25.45 94.30 25.45Q95.95 25.45 96.10 26.80Q96.20 27.25 94 29.75Q91.15 33.20 90.10 34.70Q88.15 37.55 88.15 39.15Q88.15 40.25 88.90 40.25Q89.65 40.25 90.82 39.52Q92 38.80 93.30 37.67Q94.60 36.55 95.82 35.33Q97.05 34.10 97.95 33.05Q98.25 32.70 98.55 32.70Q98.85 32.70 98.85 33Q98.85 33.10 98.80 33.30Q98.75 33.50 98.50 33.75Q97.70 34.65 96.45 35.98Q95.20 37.30 93.75 38.60Q92.30 39.90 90.95 40.75Q89.60 41.60 88.65 41.60Q87.50 41.60 86.65 40.98Q85.80 40.35 85.80 39.25Q85.80 38.15 86.15 37.02Q86.50 35.90 86.70 35.10Q84.35 37.85 82.57 39.30Q80.80 40.75 79.60 41.27Q78.40 41.80 77.70 41.80ZM106.80 41.50Q104.65 41.50 103.85 40.38Q103.05 39.25 103.05 37.35Q103.05 35.25 104.35 32.35Q104.85 31.20 105.40 30.27Q105.95 29.35 106.55 28.55Q106.35 28.60 106.20 28.60Q106.05 28.60 105.90 28.60Q104.70 28.60 103.90 26.90L100.20 31.70Q97.25 35.55 96.60 35.55Q96.35 35.55 96.35 35.35Q96.35 35.10 96.60 34.70Q96.75 34.40 97.20 33.90Q99.10 31.70 100.70 29.55Q102.30 27.40 103.35 25.35Q104.50 21 106.25 21Q107.40 21 107.40 22.05Q107.40 23 106.15 24.55Q104.95 26.10 104.95 26.15Q104.95 27.20 106.50 27.20Q107.40 27.20 108.50 26.55L109.80 25.75Q109.90 25.70 110.10 25.70Q110.70 25.70 111.15 26.20Q111.60 26.70 111.45 27.10L108 31.45Q104.80 35.55 104.80 38.05Q104.80 40.30 107 40.30Q108.50 40.30 110.22 39.40Q111.95 38.50 113.57 37.17Q115.20 35.85 116.30 34.60L117.50 33.20Q117.60 33.10 117.75 32.95Q117.90 32.80 118 32.80Q118.35 32.80 118.35 33.15Q118.35 33.25 118.25 33.50Q118.15 33.75 117.90 34.05L116.30 35.85Q115.15 37.15 113.47 38.48Q111.80 39.80 110.02 40.65Q108.25 41.50 106.80 41.50ZM117.45 51.50Q115.85 51.50 114.65 50.15Q113.45 48.75 113.50 47.05Q114.10 47.80 115.10 48.80Q116.40 50.05 117.65 50.05Q120.50 50.05 123.80 45.50Q124.95 43.90 126.17 41.77Q127.40 39.65 128.50 37.05L130.40 32.45L123.05 38.20Q119.65 40.85 117.60 40.85Q116.50 40.85 115.85 40.05Q115.20 39.25 115.20 38.40Q115.20 36.25 118.90 31.35Q122.60 26.40 124.45 26.40Q126 26.40 126 27.55Q126 28 121.55 32.75Q117.15 37.45 117.15 39.10Q117.15 39.75 118 39.75Q119.60 39.75 124.95 35.60Q127.15 33.85 128.85 32.40Q130.55 30.95 131.70 29.80Q132.10 29.30 132.50 28.82Q132.90 28.35 133.25 27.85Q134.20 26.75 135.15 26.75Q136.50 26.75 136.50 27.85Q136.50 28.05 134.40 31.15Q133.30 32.85 132.65 33.77Q132 34.70 131.90 34.95Q130.35 37.95 127.15 43.70Q122.30 51.50 117.45 51.50Z"/></g><g transform="translate(0, 71.25)"><path d=""/></g></g></svg>