 <svg  version="1.0" xmlns="http://www.w3.org/2000/svg"  width="900.000000pt" height="408.000000pt" viewBox="0 0 900.000000 408.000000"  preserveAspectRatio="xMidYMid meet">
  <g transform="translate(0.000000,408.000000) scale(0.100000,-0.100000)" fill="white" stroke="none">
  <!--"T"-->
  <path d="M1538 4039 c-5 -4 -10 -21 -11 -40 -2 -43 20 -49 63 -17 31 23 32 23 46 3 8 -11 13 -29 10 -40 -3 -11 -6 -50 -6 -87 0 -56 -4 -71 -21 -87 -36 -33 -19 -47 57 -46 63 0 69 2 72 22 2 14 -3 23 -16 28 -18 5 -21 17 -24 98 -2 51 0 100 4 110 12 23 35 22 43 -3 3 -11 13 -20 21 -20 17 0 45 61 33 74 -9 10 -255 15 -271 5z"/>
 <!--"H"-->
  <path d="M1886 4018 c4 -13 9 -70 11 -126 4 -89 2 -106 -12 -116 -10 -7 -15 -21 -13 -32 3 -16 11 -19 63 -18 49 2 61 5 64 19 1 10 -4 22 -12 26 -20 12 -29 52 -17 83 9 24 14 26 69 26 47 0 62 -4 70 -18 11 -21 3 -72 -16 -93 -16 -19 -7 -49 16 -49 42 0 93 14 98 27 3 7 -3 23 -13 34 -25 28 -26 168 -1 215 9 17 13 34 10 38 -11 10 -101 7 -108 -4 -4 -6 -2 -17 4 -24 6 -7 12 -28 13 -47 l3 -34 -75 0 -75 0 3 35 c1 19 9 40 17 46 31 23 16 34 -46 34 -59 0 -61 -1 -53 -22z"/>
 <!--"E"-->
  <path d="M2280 4030 c0 -6 9 -24 21 -39 18 -25 21 -40 18 -115 -4 -78 -7 -89 -28 -105 -45 -34 -24 -45 98 -48 101 -2 114 0 132 18 21 21 23 69 3 76 -6 2 -25 -8 -42 -22 -61 -51 -127 -16 -108 59 8 33 35 34 66 1 30 -32 40 -24 40 34 0 56 -7 67 -31 45 -10 -9 -30 -14 -46 -12 -22 2 -29 9 -31 31 -7 58 43 76 90 32 38 -35 48 -31 48 15 l0 40 -115 0 c-73 0 -115 -4 -115 -10z"/>
 <!--"G"-->
  <path d="M3435 3679 c-22 -6 -76 -14 -120 -20 -44 -5 -93 -14 -109 -19 -16 -6 -41 -10 -55 -10 -14 0 -69 -11 -121 -25 -140 -35 -172 -45 -207 -61 -17 -8 -36 -14 -42 -14 -6 0 -19 -4 -29 -9 -44 -21 -94 -42 -172 -71 -149 -56 -424 -196 -574 -292 -78 -50 -326 -230 -356 -259 -8 -8 -47 -40 -85 -73 -248 -208 -489 -487 -576 -665 -39 -80 -55 -143 -64 -247 -8 -91 2 -124 59 -199 80 -105 191 -157 336 -158 130 0 221 19 310 65 136 70 180 102 311 226 91 86 120 82 56 -9 -18 -25 -61 -87 -97 -138 -36 -51 -69 -100 -75 -109 -27 -46 -150 -210 -174 -229 -14 -13 -36 -23 -47 -23 -34 0 -124 -31 -184 -63 -30 -16 -102 -54 -160 -84 -94 -50 -142 -77 -315 -185 -74 -46 -236 -155 -265 -178 -14 -11 -57 -44 -97 -73 -127 -94 -318 -275 -418 -396 -33 -41 -65 -78 -70 -85 -36 -39 -79 -126 -83 -168 -4 -44 -2 -50 28 -78 l32 -30 182 0 c170 0 188 2 257 25 110 38 251 110 279 143 8 10 33 31 55 47 151 112 262 223 405 401 30 38 70 84 89 104 19 19 44 51 57 70 12 19 39 53 58 74 20 22 36 45 36 50 0 6 20 34 45 63 25 28 45 55 45 59 0 4 18 29 39 54 21 25 65 86 98 135 96 145 99 150 124 162 13 6 42 14 64 18 22 3 65 10 95 14 96 16 243 13 268 -5 32 -22 67 -15 67 15 0 13 -7 27 -15 31 -8 4 -25 12 -37 18 -27 14 -239 16 -248 3 -3 -6 -27 -13 -53 -17 -26 -3 -55 -13 -64 -22 -13 -11 -24 -12 -39 -6 -20 9 -20 11 15 59 20 28 42 61 48 75 7 14 28 50 48 80 19 30 39 63 45 72 69 115 196 317 231 368 25 36 56 85 69 110 24 46 147 224 187 270 56 65 69 120 29 120 -22 0 -31 -8 -71 -63 -19 -26 -62 -81 -95 -120 -33 -40 -95 -124 -137 -187 -82 -123 -172 -221 -272 -298 -68 -52 -102 -79 -126 -103 -9 -8 -45 -33 -81 -54 -35 -21 -66 -41 -69 -44 -3 -3 -26 -17 -52 -31 -27 -13 -48 -27 -48 -31 0 -18 -136 -41 -246 -42 -142 -1 -190 16 -247 85 -37 45 -63 118 -52 147 4 9 10 36 16 61 29 144 42 190 79 268 23 48 44 92 48 99 118 196 383 478 627 668 21 17 46 37 54 45 25 25 155 111 283 188 114 69 196 110 383 194 50 23 95 44 100 48 6 4 26 11 45 15 19 4 40 11 45 15 19 13 131 50 212 69 45 11 87 22 93 26 5 3 34 11 63 16 28 6 86 17 127 25 277 54 460 67 538 38 98 -36 110 -76 33 -114 -80 -40 -310 -240 -338 -294 -25 -48 10 -116 60 -116 112 1 339 240 372 393 3 15 10 27 16 27 9 0 47 16 138 57 22 10 51 14 82 11 59 -6 74 2 65 36 -6 26 -22 32 -76 27 -37 -3 -139 -38 -177 -61 -19 -11 -36 -20 -38 -20 -3 0 -11 14 -20 30 -9 17 -35 42 -58 58 -41 26 -46 27 -197 29 -85 1 -173 -3 -195 -8z m395 -235 c0 -13 -25 -51 -82 -125 -55 -70 -135 -141 -175 -153 -46 -14 -22 20 102 148 69 70 125 132 125 137 0 5 7 9 15 9 8 0 15 -7 15 -16z m-2228 -2168 c-9 -21 -177 -250 -323 -441 -16 -22 -83 -110 -147 -195 -195 -257 -410 -457 -574 -532 -197 -90 -192 -88 -313 -90 -99 -1 -116 1 -148 20 -19 13 -38 30 -41 39 -11 27 53 129 162 262 51 62 246 250 312 302 30 24 57 46 60 49 18 20 150 117 225 165 81 52 160 108 191 134 16 13 87 51 96 51 4 0 41 20 81 45 41 25 79 45 85 45 6 0 12 3 14 8 2 4 23 18 48 31 25 14 47 27 50 30 3 4 49 28 102 54 54 27 101 53 104 59 4 6 10 6 17 -1 7 -7 7 -18 -1 -35z"/>
 <!--"stone"-->
  <path d="M7835 3616 c-17 -12 -18 -17 -6 -54 28 -83 -14 -174 -139 -303 -55 -57 -176 -149 -196 -149 -7 0 -14 -4 -14 -10 0 -5 -10 -10 -23 -10 -12 0 -31 -6 -42 -14 -11 -7 -36 -17 -55 -21 -19 -4 -41 -11 -50 -16 -24 -13 -185 -49 -222 -49 -18 0 -51 -5 -73 -11 -22 -5 -123 -14 -225 -18 -109 -5 -196 -14 -213 -22 -15 -7 -30 -9 -33 -6 -12 11 16 62 61 112 52 59 62 105 21 105 -18 0 -31 -12 -52 -47 -15 -27 -30 -50 -34 -53 -3 -3 -16 -22 -29 -43 -12 -20 -30 -41 -39 -46 -10 -5 -80 -4 -167 2 -243 18 -517 11 -550 -13 -5 -4 -29 -11 -52 -15 -24 -4 -45 -11 -49 -16 -3 -5 -13 -9 -22 -9 -9 0 -30 -7 -46 -15 -15 -8 -36 -15 -46 -15 -10 0 -25 -7 -34 -15 -8 -8 -20 -15 -26 -15 -58 0 -270 -158 -270 -202 0 -31 44 -22 81 17 47 49 170 131 208 140 17 3 31 11 31 16 0 5 9 9 21 9 12 0 35 6 52 14 114 50 346 83 499 71 137 -11 202 -12 266 -2 46 7 52 6 52 -10 0 -10 -15 -36 -32 -58 -39 -46 -90 -116 -152 -205 -136 -198 -615 -699 -836 -874 -66 -53 -92 -45 -50 14 18 26 64 120 92 190 5 14 16 38 24 53 8 16 14 35 14 42 0 8 7 31 16 52 9 21 22 53 30 71 8 17 20 47 28 65 86 204 166 314 245 338 37 11 42 16 39 38 -4 37 -35 38 -102 1 -63 -34 -309 -215 -342 -251 -39 -43 -146 -133 -253 -211 -58 -43 -111 -82 -117 -87 -6 -4 -46 -29 -89 -54 -95 -56 -181 -85 -197 -69 -11 11 -58 17 -58 7 0 -18 26 -54 43 -59 35 -9 107 6 156 32 199 105 321 196 503 373 133 130 178 168 178 151 0 -4 -25 -46 -55 -92 -55 -85 -128 -225 -160 -310 -9 -25 -23 -57 -31 -72 -8 -14 -14 -31 -14 -37 0 -6 -16 -45 -36 -88 -50 -106 -126 -181 -210 -205 -134 -39 -155 -22 -119 98 21 67 23 81 11 92 -24 24 -74 5 -100 -36 -48 -77 -44 -140 12 -196 31 -32 41 -36 86 -36 28 0 69 7 91 15 22 8 52 14 68 15 15 0 57 18 93 40 46 28 77 40 103 40 44 0 133 43 199 97 26 21 53 42 61 48 55 39 371 376 371 395 0 6 6 10 14 10 8 0 17 7 20 16 3 8 10 13 16 9 6 -3 0 -21 -15 -43 -70 -106 -175 -283 -195 -327 -52 -119 -6 -220 106 -233 75 -8 160 41 276 162 54 56 98 104 98 108 0 10 84 98 93 98 14 0 7 -31 -8 -36 -8 -4 -15 -13 -15 -21 0 -8 -11 -29 -24 -46 -38 -50 -76 -138 -76 -177 0 -42 20 -75 60 -95 43 -22 71 -19 152 19 86 40 213 153 273 243 52 78 57 81 112 76 45 -4 53 -1 148 62 71 47 137 104 228 198 71 73 156 160 189 194 56 57 98 84 98 62 0 -14 -76 -133 -150 -234 -90 -123 -97 -133 -165 -222 -34 -43 -68 -89 -78 -103 -50 -75 -80 -116 -91 -125 -12 -9 -57 -74 -83 -118 -6 -11 -9 -26 -6 -33 14 -36 98 6 142 70 28 40 236 256 247 256 3 0 16 12 29 26 13 14 44 40 68 57 24 18 76 61 114 97 38 36 90 79 114 95 38 26 76 57 139 115 86 79 215 180 229 180 35 0 1 -57 -189 -315 -36 -49 -81 -115 -100 -145 -19 -30 -47 -71 -62 -90 -15 -19 -28 -38 -28 -42 0 -5 -12 -27 -27 -51 -69 -106 -82 -188 -40 -252 27 -42 43 -49 128 -48 96 0 209 42 298 110 25 18 51 32 59 31 8 -2 20 -19 26 -38 7 -22 26 -45 54 -65 42 -29 48 -30 150 -30 83 0 118 4 157 20 68 27 183 88 220 117 6 5 42 31 80 60 100 73 206 185 235 246 14 29 30 52 37 52 9 0 13 17 13 56 0 46 -3 55 -17 52 -9 -2 -21 -19 -27 -38 -6 -19 -34 -69 -62 -110 -106 -155 -335 -325 -527 -391 -103 -36 -219 -18 -233 35 -5 22 -1 34 38 101 24 43 28 51 38 72 5 12 19 27 32 34 21 11 71 50 143 109 34 28 142 136 226 225 31 33 83 101 115 150 54 83 59 95 62 157 6 97 -1 118 -40 118 -46 0 -81 -27 -208 -157 -175 -179 -365 -444 -459 -639 l-33 -70 -132 -67 c-144 -73 -219 -100 -262 -95 -52 6 -44 33 63 222 37 65 44 76 72 115 14 19 47 77 74 130 26 53 54 103 61 111 7 8 16 22 20 30 3 8 22 42 41 75 89 155 110 222 80 255 -10 11 -29 20 -41 20 -39 0 -138 -60 -222 -135 -44 -38 -96 -83 -117 -100 -21 -16 -43 -34 -49 -40 -6 -5 -41 -35 -76 -65 -36 -30 -96 -84 -135 -121 -96 -92 -135 -123 -135 -108 0 7 17 35 38 63 21 28 47 67 58 86 10 19 29 46 40 60 23 26 87 145 117 218 21 51 21 72 3 98 -15 19 -16 18 -73 -11 -43 -22 -104 -76 -238 -210 -161 -160 -366 -335 -394 -335 -40 0 -5 71 80 160 67 70 129 148 129 161 0 4 12 30 28 56 79 138 66 255 -33 293 -99 38 -221 -50 -425 -305 -152 -190 -519 -567 -610 -626 -86 -56 -115 -65 -145 -45 -33 22 -35 9 27 156 6 14 19 41 30 60 11 19 37 73 59 119 22 46 73 138 113 205 40 67 81 137 91 156 10 19 29 48 42 64 14 17 29 40 34 53 5 13 25 49 46 81 21 31 42 65 48 74 23 38 105 155 128 183 l25 29 203 -2 c153 -2 224 1 284 12 44 9 94 16 111 16 17 0 48 7 67 15 20 8 50 15 66 15 16 0 33 5 36 10 3 6 14 10 23 10 9 0 30 7 46 15 15 8 35 15 43 15 8 0 27 6 41 13 15 8 43 21 62 29 138 60 186 101 335 279 37 44 54 76 70 133 17 59 14 104 -11 144 -17 26 -23 27 -49 8z m-787 -982 c36 -25 31 -99 -15 -182 -20 -37 -48 -89 -62 -115 -38 -70 -89 -123 -103 -109 -19 19 -43 14 -69 -15 -45 -50 -62 -86 -63 -134 -1 -41 -7 -53 -46 -96 -25 -26 -65 -73 -90 -103 -52 -62 -69 -80 -96 -98 -103 -68 -128 -82 -152 -84 -38 -4 -40 25 -6 87 14 28 38 73 52 100 14 28 33 61 42 75 9 14 36 60 59 102 75 138 258 401 351 502 73 80 147 106 198 70z m1698 -41 c-7 -50 -60 -137 -161 -263 -66 -83 -293 -320 -307 -320 -27 0 22 84 211 356 87 125 236 289 253 278 6 -4 8 -24 4 -51z"/>
 <!--"rey"-->
  <path d="M3114 2818 c-31 -34 -70 -95 -114 -181 -14 -26 -40 -60 -58 -74 -19 -14 -46 -37 -61 -52 -64 -61 -138 -125 -171 -147 -19 -13 -60 -43 -90 -65 -30 -22 -80 -52 -110 -66 -59 -27 -70 -38 -70 -65 0 -26 22 -22 87 13 110 59 234 149 328 237 130 121 123 116 139 103 9 -8 27 -10 46 -6 28 6 30 5 30 -21 0 -21 -18 -47 -72 -103 -214 -223 -229 -241 -399 -469 -79 -106 -86 -137 -45 -206 31 -53 84 -81 151 -81 73 0 204 56 308 133 32 24 60 42 62 40 1 -2 12 -22 24 -45 26 -52 79 -93 128 -100 52 -7 170 30 244 76 220 137 294 201 701 601 115 113 213 207 218 208 24 9 6 -35 -37 -90 -27 -33 -70 -88 -98 -123 -212 -269 -382 -503 -409 -562 -17 -39 -17 -44 -1 -86 13 -34 25 -48 54 -60 42 -19 97 -22 106 -7 3 6 18 10 33 10 58 0 203 91 327 204 47 43 75 57 75 37 0 -10 -27 -45 -103 -135 -33 -38 -194 -250 -359 -470 -165 -221 -319 -421 -342 -446 -23 -25 -62 -70 -86 -100 -96 -119 -176 -201 -265 -268 -70 -54 -239 -144 -330 -177 -27 -10 -55 -22 -61 -27 -37 -27 -271 -54 -410 -47 l-111 6 -79 49 c-43 26 -81 51 -84 54 -3 3 -17 13 -32 23 -59 37 -145 129 -188 199 l-45 73 -3 138 c-3 126 -5 137 -22 137 -41 0 -48 -22 -45 -147 3 -123 8 -140 60 -227 40 -67 179 -206 240 -241 28 -16 59 -36 70 -46 23 -20 108 -59 127 -59 8 0 19 -5 25 -11 24 -24 408 5 480 37 17 8 36 14 41 14 28 0 238 94 315 141 48 30 100 60 115 68 31 15 512 497 512 512 0 6 54 69 120 141 66 71 120 135 120 142 0 6 8 16 19 23 10 6 31 33 46 60 15 26 48 71 71 100 24 28 44 54 44 58 0 4 19 33 43 65 23 32 69 97 102 144 33 48 77 108 98 134 21 26 58 81 83 122 56 94 67 111 77 124 4 6 30 43 57 81 27 39 71 101 97 138 98 138 179 247 216 286 47 50 51 91 10 90 -22 0 -40 -15 -87 -74 -32 -40 -66 -82 -75 -92 -18 -20 -80 -95 -126 -153 -16 -20 -49 -61 -73 -91 -64 -80 -247 -264 -326 -328 -38 -31 -81 -66 -95 -77 -14 -12 -57 -38 -96 -59 -38 -20 -86 -46 -105 -57 -35 -21 -125 -39 -147 -31 -23 9 -14 33 45 111 32 42 69 95 82 117 13 22 27 42 30 45 4 3 19 24 33 47 14 23 31 44 37 48 6 3 22 30 37 58 14 29 45 78 69 109 24 31 44 60 44 63 0 4 13 24 29 44 16 20 39 56 52 81 12 25 28 52 34 60 24 29 65 111 65 128 0 19 -34 62 -49 62 -17 0 -114 -86 -270 -236 -86 -83 -176 -169 -200 -190 -24 -22 -74 -68 -111 -104 -76 -75 -224 -195 -323 -264 -129 -90 -285 -144 -337 -116 -39 21 -20 98 45 189 19 26 45 52 57 58 24 11 131 93 283 218 179 147 335 338 335 409 0 7 -12 26 -26 41 -35 38 -77 31 -179 -31 -174 -105 -443 -427 -614 -734 -9 -17 -22 -24 -195 -113 -123 -63 -134 -67 -198 -67 -52 0 -70 4 -74 15 -6 15 28 76 104 180 23 33 50 77 59 98 9 20 20 37 25 37 4 0 15 15 23 33 19 40 54 88 106 145 41 46 141 176 172 225 36 57 14 114 -40 104 -83 -16 -71 30 43 157 107 120 117 149 54 154 -29 2 -41 -3 -66 -30z m744 -224 c2 -12 -15 -45 -41 -80 -50 -67 -248 -270 -322 -329 -27 -22 -73 -64 -102 -92 -55 -55 -73 -64 -73 -38 0 15 123 202 188 285 98 124 287 282 332 277 8 -1 16 -12 18 -23z"/>
 <!--"I"-->
  <path d="M7653 1222 c-28 -4 -30 -23 -3 -40 18 -11 20 -23 20 -106 0 -80 -3 -97 -21 -120 -12 -15 -18 -31 -13 -35 5 -5 35 -11 66 -14 64 -6 83 10 52 45 -14 14 -18 42 -20 123 -3 97 -2 104 17 110 12 4 19 14 17 23 -3 17 -55 23 -115 14z"/>
 <!--"N"-->
  <path d="M7843 1223 c-31 -6 -29 -18 8 -44 l31 -22 -6 -84 c-3 -45 -13 -97 -21 -114 -22 -41 -6 -59 52 -59 52 0 66 20 35 53 -25 28 -42 167 -20 167 16 0 130 -125 159 -174 16 -27 27 -36 43 -34 20 3 21 9 24 128 2 107 5 127 22 145 30 32 12 49 -49 43 -63 -6 -71 -13 -43 -38 12 -12 22 -29 22 -39 0 -10 3 -39 6 -65 10 -69 -10 -60 -100 44 -44 50 -87 90 -97 90 -9 0 -23 2 -31 4 -7 2 -23 1 -35 -1z"/>
  <!--"N"-->
  <path d="M8251 1219 l-24 -10 32 -27 33 -27 -11 -94 c-7 -52 -16 -102 -22 -113 -16 -30 6 -48 58 -48 53 0 64 18 34 56 -16 21 -21 41 -21 90 0 45 4 64 13 64 15 0 119 -115 148 -164 24 -41 56 -48 64 -13 2 12 6 71 7 130 3 99 5 110 26 125 18 14 20 20 10 30 -13 13 -75 16 -102 6 -20 -8 -21 -30 -1 -38 11 -4 15 -22 15 -76 0 -77 -13 -91 -43 -42 -9 15 -43 55 -74 89 -61 65 -97 81 -142 62z"/>
  </g>
</svg> 